<svg enable-background="new 0 0 100 100" height="512" viewBox="0 0 100 100" width="512" xmlns="http://www.w3.org/2000/svg"><path d="m95 50c0 24.8624725-20.1487198 45-45 45-13.9162445 0-26.3587418-6.3112335-34.605011-16.2337418-6.491272-7.7962417-10.394989-17.8200302-10.394989-28.7662582 0-24.8512802 20.1487198-45 45-45 10.7549973 0 20.6325302 3.7799835 28.372467 10.091217 10.147522 8.2350083 16.627533 20.8125 16.627533 34.908783z" fill="#f4c85b"/><ellipse cx="50.004" cy="50.006" fill="#efb250" rx="34.572" ry="34.572" transform="matrix(.987 -.16 .16 .987 -7.364 8.655)"/><path d="m67.0337524 52.2074738c-.6928787-.9160042-1.573616-1.6792717-2.6187134-2.2899399-.7868423-.4697571-1.6675835-.8454781-2.6422195-1.1273727 1.7731667-.868988 3.0884705-2.0197983 3.9692078-3.4407501.868988-1.4208832 1.3034821-2.9358025 1.3034821-4.5563698 0-1.7262192-.4932632-3.3820496-1.4796524-4.9673538-.9864655-1.5853043-2.3486443-2.7596245-4.0866165-3.5229607-1.3152313-.587162-2.9593086-.9394436-4.9321594-1.0803566v-4.6972828h-4.9556694v4.6268272h-2.5013084v-4.6268272h-4.9438438v4.6268272h-2.1020815v-.011755h-5.531002v4.4388962h3.8987503v28.8178711h-3.8987503v4.4388962h3.8987503v.0117493h3.734333v4.6385803h4.9438438v-4.6385803h2.5013084v4.6385803h4.9556694v-4.6737671c1.6440048-.0822144 3.0884666-.2818985 4.3214912-.5989151 1.6440773-.4110565 3.0297661-1.0334091 4.1218758-1.8554459 1.0921097-.8220444 2.0197983-1.9963608 2.7596283-3.5112114.7515793-1.5148468 1.1273727-3.1589241 1.1273727-4.9204063.0000001-2.1959725-.6224288-4.0983658-1.8436965-5.7189331zm-21.6309623-16.6049118h7.5273628c2.712677 0 4.6268272.176178 5.73069.5284615 1.1156197.3522797 1.9728508.9981422 2.5717659 1.9493408.5989151.9511948.9042473 2.0550575.9042473 3.3115921 0 1.3152313-.3170891 2.407341-.9629478 3.2880821-.6458626.8690567-1.5970612 1.5031662-2.8653488 1.8789558-.9629478.2935791-2.5482521.434494-4.7559814.434494h-8.1497879v-11.3909263zm17.5560341 25.4945259c-.4931946.9159317-1.1273003 1.6205673-1.9023933 2.0902557-.7750206.4815102-1.7262154.8220406-2.8770294 1.0334053-.6576157.1174774-1.7849884.176178-3.3938026.176178h-9.3828087v-12.9527893h8.7134398c2.3955879 0 4.2392769.2113686 5.5193176.6224213.7632675.258316 1.4208832.6223526 1.9963608 1.0921097.375721.3170929.7045631.6811295.9981422 1.1038666.71632 1.0334053 1.0803566 2.254673 1.0803566 3.6638718.0000001 1.1978301-.258316 2.2546767-.751583 3.1706809z" fill="#cc903a"/><path d="m65.9300461 52.2074738c-.6928864-.9160042-1.5736237-1.6792717-2.6187134-2.2899399-.7868462-.4697571-1.6675873-.8454781-2.6422234-1.1273727 1.7731628-.868988 3.0884705-2.0197983 3.9692116-3.4407501.8689804-1.4208832 1.3034744-2.9358025 1.3034744-4.5563698 0-1.7262192-.4932632-3.3820496-1.4796524-4.9673538-.9864616-1.5853043-2.3486404-2.7596245-4.0866127-3.5229607-1.3152351-.587162-2.9593124-.9394436-4.9321594-1.0803566v-4.6972828h-4.9556732v4.6268272h-2.5013084v-4.6268272h-4.9438438v4.6268272h-2.1020775v-.011755h-5.5310059v4.4388962h3.8987541v28.8178711h-3.8987541v4.4388962h3.8987541v.0117493h3.7343292v4.6385803h4.9438438v-4.6385803h2.5013084v4.6385803h4.9556732v-4.6737671c1.6440048-.0822144 3.0884666-.2818985 4.3214912-.5989151 1.6440773-.4110565 3.0297661-1.0334091 4.1218758-1.8554459 1.0921059-.8220444 2.0197945-1.9963608 2.7596245-3.5112114.7515793-1.5148468 1.1273727-3.1589241 1.1273727-4.9204063.0000001-2.1959725-.6224211-4.0983658-1.8436888-5.7189331zm-21.6309662-16.6049118h7.5273628c2.712677 0 4.6268234.176178 5.73069.5284615 1.1156197.3522797 1.9728508.9981422 2.5717659 1.9493408.5989113.9511948.9042473 2.0550575.9042473 3.3115921 0 1.3152313-.3170891 2.407341-.9629517 3.2880821-.6458626.8690567-1.5970573 1.5031662-2.865345 1.8789558-.9629517.2935791-2.5482559.434494-4.7559814.434494h-8.1497879zm17.5560341 25.4945259c-.4931946.9159317-1.1273041 1.6205673-1.9023933 2.0902557-.7750206.4815102-1.7262192.8220406-2.8770294 1.0334053-.6576157.1174774-1.7849884.176178-3.3938026.176178h-9.3828087v-12.9527893h8.7134361c2.3955879 0 4.2392807.2113686 5.5193214.6224213.7632675.258316 1.4208832.6223526 1.9963608 1.0921097.3757172.3170929.7045631.6811295.9981422 1.1038666.71632 1.0334053 1.0803566 2.254673 1.0803566 3.6638718 0 1.1978301-.2583161 2.2546767-.7515831 3.1706809z" fill="#fcd462"/></svg>